<svg width="400" height="400" viewBox="0 0 400 400" fill="none" xmlns="http://www.w3.org/2000/svg">
<path d="M263.376 35.0159C263.376 35.0159 204.616 17.7119 146.576 52.7119C88.536 87.7119 58.984 152.968 33.6 205.336C8.216 257.704 22.28 308.992 66.256 330.536C110.232 352.08 140.472 315.656 202.392 310.904C264.312 306.152 280.904 313.88 332.496 277.624C384.088 241.368 393.904 161.256 353.768 104.312C313.632 47.3679 263.376 35.0159 263.376 35.0159Z" fill="#619698"/>
<path opacity="0.7" d="M263.376 35.0159C263.376 35.0159 204.616 17.7119 146.576 52.7119C88.536 87.7119 58.984 152.968 33.6 205.336C8.216 257.704 22.28 308.992 66.256 330.536C110.232 352.08 140.472 315.656 202.392 310.904C264.312 306.152 280.904 313.88 332.496 277.624C384.088 241.368 393.904 161.256 353.768 104.312C313.632 47.3679 263.376 35.0159 263.376 35.0159Z" fill="white"/>
<path d="M187.432 125.24H78.248V286.456H187.432V125.24Z" fill="#263238" stroke="#263238" stroke-linecap="round" stroke-linejoin="round"/>
<path d="M180.408 133.056H85.272V278.816H180.408V133.056Z" fill="white" stroke="#263238" stroke-linecap="round" stroke-linejoin="round"/>
<path d="M114.104 120.256H151.576C152.983 120.256 154.332 120.815 155.326 121.81C156.321 122.804 156.88 124.153 156.88 125.56V136.848H108.8V125.6C108.795 124.9 108.928 124.206 109.192 123.558C109.456 122.91 109.846 122.32 110.339 121.824C110.832 121.327 111.419 120.933 112.065 120.664C112.711 120.395 113.404 120.256 114.104 120.256Z" fill="#7D7D7D" stroke="#263238" stroke-linecap="round" stroke-linejoin="round"/>
<path d="M129.6 113.472H136C136.756 113.464 137.506 113.606 138.207 113.89C138.908 114.175 139.544 114.596 140.081 115.129C140.617 115.662 141.041 116.297 141.33 116.996C141.618 117.695 141.764 118.444 141.76 119.2V120.24H123.928V119.2C123.924 118.451 124.067 117.709 124.35 117.016C124.633 116.323 125.05 115.692 125.577 115.16C126.103 114.628 126.73 114.205 127.42 113.916C128.111 113.626 128.851 113.475 129.6 113.472Z" fill="#7D7D7D" stroke="#263238" stroke-linecap="round" stroke-linejoin="round"/>
<path d="M156.872 171.528C165.373 171.528 172.264 164.637 172.264 156.136C172.264 147.635 165.373 140.744 156.872 140.744C148.371 140.744 141.48 147.635 141.48 156.136C141.48 164.637 148.371 171.528 156.872 171.528Z" fill="#263238" stroke="#263238" stroke-linecap="round" stroke-linejoin="round"/>
<path d="M167.512 152.288H160.944V145.728H153.248V152.288H146.688V159.984H153.248V166.552H160.944V159.984H167.512V152.288Z" fill="#619698" stroke="#263238" stroke-linecap="round" stroke-linejoin="round"/>
<path d="M93.4961 155.688H130.616" stroke="#263238" stroke-linecap="round" stroke-linejoin="round"/>
<path d="M93.4961 163.384H130.616" stroke="#263238" stroke-linecap="round" stroke-linejoin="round"/>
<path d="M93.4961 188.736H171.808" stroke="#263238" stroke-linecap="round" stroke-linejoin="round"/>
<path d="M103.008 195.976H93.9521V205.48H103.008V195.976Z" stroke="#263238" stroke-linecap="round" stroke-linejoin="round"/>
<path d="M145.104 195.976H136.048V205.48H145.104V195.976Z" stroke="#263238" stroke-linecap="round" stroke-linejoin="round"/>
<path d="M106.624 205.48H128.808" stroke="#263238" stroke-linecap="round" stroke-linejoin="round"/>
<path d="M148.72 205.48H170.904" stroke="#263238" stroke-linecap="round" stroke-linejoin="round"/>
<path d="M103.008 214.536H93.9521V224.04H103.008V214.536Z" stroke="#263238" stroke-linecap="round" stroke-linejoin="round"/>
<path d="M145.104 214.536H136.048V224.04H145.104V214.536Z" stroke="#263238" stroke-linecap="round" stroke-linejoin="round"/>
<path d="M106.624 224.04H128.808" stroke="#263238" stroke-linecap="round" stroke-linejoin="round"/>
<path d="M148.72 224.04H170.904" stroke="#263238" stroke-linecap="round" stroke-linejoin="round"/>
<path d="M103.008 233.096H93.9521V242.6H103.008V233.096Z" stroke="#263238" stroke-linecap="round" stroke-linejoin="round"/>
<path d="M145.104 233.096H136.048V242.6H145.104V233.096Z" stroke="#263238" stroke-linecap="round" stroke-linejoin="round"/>
<path d="M106.624 242.6H128.808" stroke="#263238" stroke-linecap="round" stroke-linejoin="round"/>
<path d="M148.72 242.6H170.904" stroke="#263238" stroke-linecap="round" stroke-linejoin="round"/>
<path d="M103.008 251.656H93.9521V261.16H103.008V251.656Z" stroke="#263238" stroke-linecap="round" stroke-linejoin="round"/>
<path d="M145.104 251.656H136.048V261.16H145.104V251.656Z" stroke="#263238" stroke-linecap="round" stroke-linejoin="round"/>
<path d="M106.624 261.16H128.808" stroke="#263238" stroke-linecap="round" stroke-linejoin="round"/>
<path d="M148.72 261.16H170.904" stroke="#263238" stroke-linecap="round" stroke-linejoin="round"/>
<path d="M285.472 80.584H201.88V237.592H285.472V80.584Z" fill="#619698" stroke="#263238" stroke-linecap="round" stroke-linejoin="round"/>
<path d="M276.904 99.344C274.772 99.344 272.727 98.4969 271.219 96.9891C269.711 95.4813 268.864 93.4363 268.864 91.304H217.96C217.96 93.4363 217.113 95.4813 215.605 96.9891C214.097 98.4969 212.052 99.344 209.92 99.344V218.304C212.052 218.304 214.097 219.151 215.605 220.659C217.113 222.167 217.96 224.212 217.96 226.344C217.96 226.528 217.96 226.704 217.96 226.88H268.928C268.928 226.704 268.928 226.528 268.928 226.344C268.928 224.212 269.775 222.167 271.283 220.659C272.791 219.151 274.836 218.304 276.968 218.304C277.152 218.304 277.328 218.304 277.504 218.304V99.312C277.264 99.328 277.088 99.344 276.904 99.344ZM243.68 183.472C238.857 183.472 234.143 182.042 230.133 179.363C226.123 176.683 222.998 172.875 221.152 168.419C219.306 163.964 218.824 159.061 219.764 154.331C220.705 149.601 223.028 145.256 226.438 141.846C229.848 138.436 234.193 136.113 238.923 135.172C243.653 134.232 248.556 134.715 253.011 136.56C257.467 138.406 261.275 141.531 263.954 145.541C266.634 149.551 268.064 154.265 268.064 159.088C268.064 165.555 265.495 171.757 260.922 176.33C256.349 180.903 250.147 183.472 243.68 183.472Z" fill="white" stroke="#263238" stroke-linecap="round" stroke-linejoin="round"/>
<path d="M308.467 95.2014L225.875 82.3121L201.665 237.442L284.257 250.332L308.467 95.2014Z" fill="#619698" stroke="#263238" stroke-linecap="round" stroke-linejoin="round"/>
<path d="M297.096 112.424C296.052 112.265 295.05 111.901 294.147 111.353C293.244 110.805 292.459 110.084 291.837 109.231C291.214 108.378 290.767 107.41 290.52 106.383C290.273 105.356 290.233 104.291 290.4 103.248L240.104 95.392C239.773 97.4979 238.62 99.3866 236.898 100.643C235.177 101.9 233.026 102.423 230.92 102.096L212.56 219.632C214.663 219.961 216.551 221.111 217.808 222.83C219.064 224.548 219.588 226.696 219.264 228.8C219.264 228.976 219.192 229.152 219.152 229.32L269.504 237.184C269.504 237.008 269.504 236.832 269.56 236.656C269.718 235.61 270.081 234.607 270.629 233.702C271.177 232.798 271.899 232.012 272.753 231.388C273.607 230.765 274.577 230.317 275.605 230.07C276.633 229.824 277.7 229.784 278.744 229.952C278.92 229.952 279.096 230.024 279.272 230.056L297.672 112.456C297.456 112.464 297.272 112.456 297.096 112.424ZM251.288 190.4C246.523 189.655 242.086 187.515 238.538 184.249C234.989 180.982 232.489 176.737 231.354 172.05C230.218 167.363 230.498 162.445 232.158 157.917C233.817 153.388 236.782 149.454 240.678 146.611C244.574 143.768 249.225 142.145 254.044 141.945C258.862 141.746 263.632 142.98 267.749 145.491C271.866 148.002 275.146 151.678 277.175 156.053C279.203 160.428 279.888 165.307 279.144 170.072C278.651 173.236 277.539 176.272 275.871 179.007C274.204 181.741 272.015 184.12 269.428 186.008C266.841 187.896 263.907 189.255 260.795 190.009C257.682 190.762 254.452 190.895 251.288 190.4Z" fill="white" stroke="#263238" stroke-linecap="round" stroke-linejoin="round"/>
<path d="M336.938 122.008L259.227 91.2089L201.377 237.171L279.088 267.97L336.938 122.008Z" fill="#619698" stroke="#263238" stroke-linecap="round" stroke-linejoin="round"/>
<path d="M322.04 136.312C320.067 135.526 318.484 133.991 317.639 132.042C316.794 130.094 316.754 127.89 317.528 125.912L270.2 107.144C269.815 108.124 269.24 109.019 268.509 109.777C267.777 110.535 266.903 111.141 265.937 111.56C264.971 111.979 263.931 112.203 262.878 112.22C261.825 112.236 260.779 112.045 259.8 111.656L215.96 222.248C216.94 222.633 217.835 223.207 218.593 223.939C219.351 224.671 219.957 225.545 220.376 226.511C220.795 227.477 221.02 228.517 221.036 229.57C221.052 230.623 220.861 231.669 220.472 232.648C220.4 232.816 220.328 232.976 220.248 233.136L267.624 251.92C267.68 251.752 267.728 251.576 267.792 251.408C268.581 249.428 270.123 247.841 272.08 246.997C274.038 246.152 276.25 246.119 278.232 246.904C278.4 246.968 278.56 247.048 278.72 247.12L322.576 136.48C322.389 136.432 322.211 136.376 322.04 136.312ZM260.152 202.28C255.668 200.503 251.812 197.437 249.07 193.469C246.329 189.5 244.827 184.808 244.752 179.986C244.678 175.163 246.036 170.427 248.653 166.376C251.271 162.325 255.031 159.142 259.459 157.228C263.886 155.314 268.781 154.756 273.525 155.625C278.269 156.494 282.649 158.75 286.111 162.108C289.573 165.466 291.962 169.775 292.974 174.491C293.987 179.207 293.578 184.117 291.8 188.6C289.415 194.609 284.741 199.425 278.807 201.99C272.873 204.555 266.163 204.659 260.152 202.28Z" fill="white" stroke="#263238" stroke-linecap="round" stroke-linejoin="round"/>
<path d="M360.215 157.302L292.085 108.867L201.111 236.833L269.241 285.268L360.215 157.302Z" fill="#619698" stroke="#263238" stroke-linecap="round" stroke-linejoin="round"/>
<path d="M342.352 167.624C341.489 167.015 340.756 166.242 340.193 165.348C339.631 164.454 339.251 163.458 339.076 162.417C338.9 161.376 338.932 160.31 339.171 159.282C339.409 158.253 339.849 157.282 340.464 156.424L298.968 126.928C297.733 128.663 295.86 129.837 293.76 130.192C291.66 130.548 289.505 130.056 287.768 128.824L218.832 225.768C219.695 226.377 220.428 227.15 220.991 228.044C221.553 228.938 221.933 229.934 222.108 230.975C222.284 232.016 222.252 233.082 222.013 234.11C221.775 235.139 221.336 236.11 220.72 236.968C220.616 237.12 220.504 237.248 220.392 237.392L261.92 266.92C262.016 266.768 262.104 266.616 262.216 266.464C262.825 265.601 263.598 264.868 264.492 264.305C265.386 263.743 266.382 263.363 267.423 263.188C268.464 263.012 269.53 263.044 270.558 263.283C271.587 263.521 272.558 263.96 273.416 264.576C273.56 264.68 273.696 264.792 273.832 264.904L342.8 167.904C342.656 167.824 342.507 167.731 342.352 167.624ZM266.528 216.944C262.597 214.15 259.583 210.253 257.867 205.745C256.151 201.238 255.81 196.323 256.888 191.622C257.965 186.921 260.413 182.645 263.92 179.335C267.428 176.025 271.838 173.83 276.594 173.026C281.349 172.223 286.236 172.848 290.636 174.822C295.037 176.796 298.753 180.031 301.315 184.117C303.877 188.203 305.169 192.957 305.029 197.778C304.889 202.598 303.323 207.269 300.528 211.2C296.781 216.47 291.094 220.036 284.718 221.113C278.341 222.19 271.799 220.691 266.528 216.944Z" fill="white" stroke="#263238" stroke-linecap="round" stroke-linejoin="round"/>
<path d="M221.456 246.68C250.166 246.68 273.44 223.406 273.44 194.696C273.44 165.986 250.166 142.712 221.456 142.712C192.746 142.712 169.472 165.986 169.472 194.696C169.472 223.406 192.746 246.68 221.456 246.68Z" fill="white" stroke="#263238" stroke-linecap="round" stroke-linejoin="round"/>
<path d="M179.976 163.872H185.568" stroke="#263238" stroke-linecap="round" stroke-linejoin="round"/>
<path d="M182.6 160.472H187.832" stroke="#263238" stroke-linecap="round" stroke-linejoin="round"/>
<path d="M185.096 157.832H190.288" stroke="#263238" stroke-linecap="round" stroke-linejoin="round"/>
<path d="M188.312 155.032H192.888" stroke="#263238" stroke-linecap="round" stroke-linejoin="round"/>
<path d="M176.568 168.968H181.792" stroke="#263238" stroke-linecap="round" stroke-linejoin="round"/>
<path d="M172.768 177.08H178.016" stroke="#263238" stroke-linecap="round" stroke-linejoin="round"/>
<path d="M170.16 186.896H175.752" stroke="#263238" stroke-linecap="round" stroke-linejoin="round"/>
<path d="M169.784 197.848H175.376" stroke="#263238" stroke-linecap="round" stroke-linejoin="round"/>
<path d="M226.368 246.68C255.078 246.68 278.352 223.406 278.352 194.696C278.352 165.986 255.078 142.712 226.368 142.712C197.658 142.712 174.384 165.986 174.384 194.696C174.384 223.406 197.658 246.68 226.368 246.68Z" fill="white" stroke="#263238" stroke-linecap="round" stroke-linejoin="round"/>
<path d="M266.713 203.999C271.853 181.719 257.958 159.492 235.679 154.352C213.399 149.213 191.172 163.107 186.032 185.387C180.893 207.666 194.787 229.894 217.067 235.033C239.346 240.173 261.574 226.278 266.713 203.999Z" fill="white" stroke="#263238" stroke-linecap="round" stroke-linejoin="round"/>
<path d="M226.4 153.296H225.6C236.475 153.447 246.853 157.873 254.49 165.617C262.127 173.361 266.408 183.8 266.408 194.676C266.408 205.552 262.127 215.991 254.49 223.735C246.853 231.479 236.475 235.905 225.6 236.056H226.4C231.884 236.132 237.33 235.118 242.419 233.072C247.508 231.026 252.14 227.989 256.045 224.137C259.951 220.285 263.052 215.696 265.169 210.636C267.285 205.576 268.375 200.145 268.375 194.66C268.375 189.175 267.285 183.744 265.169 178.684C263.052 173.624 259.951 169.035 256.045 165.183C252.14 161.331 247.508 158.294 242.419 156.248C237.33 154.202 231.884 153.188 226.4 153.264V153.296Z" fill="white" stroke="#263238" stroke-linecap="round" stroke-linejoin="round"/>
<path d="M228.304 220.512C228.183 220.537 228.074 220.602 227.994 220.696C227.914 220.79 227.869 220.909 227.864 221.032L227.936 224.384C227.963 224.556 227.95 224.732 227.896 224.898C227.842 225.064 227.75 225.215 227.626 225.338C227.503 225.462 227.352 225.554 227.186 225.608C227.02 225.662 226.844 225.675 226.672 225.648H222.28C222.108 225.675 221.931 225.662 221.766 225.608C221.6 225.554 221.449 225.462 221.326 225.338C221.202 225.215 221.11 225.064 221.056 224.898C221.002 224.732 220.988 224.556 221.016 224.384L221.16 220.96C221.158 220.835 221.112 220.714 221.03 220.619C220.948 220.524 220.836 220.461 220.712 220.44C212.232 219.4 207.312 214.264 207.312 207.12V203.92C207.293 203.749 207.312 203.575 207.37 203.412C207.427 203.25 207.52 203.102 207.642 202.98C207.765 202.859 207.913 202.767 208.076 202.71C208.239 202.654 208.413 202.636 208.584 202.656H216.32C217.12 202.656 217.592 203.032 217.592 203.624V204.664C217.592 208.464 220.048 211.736 225.104 211.736C229.904 211.736 231.88 208.832 231.88 205.856C231.88 200.576 222.2 199.752 215.08 195.136C210.464 192.312 207.264 188.664 207.264 182.336C207.264 174.52 212.104 169.008 220.664 167.744C220.787 167.722 220.899 167.658 220.98 167.564C221.062 167.469 221.108 167.349 221.112 167.224L220.96 163.224C220.933 163.051 220.947 162.875 221.001 162.709C221.054 162.543 221.147 162.392 221.27 162.268C221.393 162.144 221.543 162.051 221.709 161.996C221.875 161.941 222.051 161.926 222.224 161.952H226.472C226.643 161.933 226.817 161.952 226.98 162.01C227.142 162.067 227.29 162.16 227.411 162.282C227.533 162.405 227.625 162.553 227.682 162.716C227.738 162.879 227.756 163.053 227.736 163.224L227.664 167.168C227.666 167.293 227.712 167.414 227.794 167.509C227.876 167.604 227.988 167.667 228.112 167.688C237.04 168.656 242.104 174.088 242.104 181.76V184.216C242.125 184.387 242.106 184.56 242.05 184.723C241.994 184.886 241.901 185.034 241.779 185.155C241.658 185.277 241.51 185.37 241.347 185.426C241.184 185.482 241.011 185.501 240.84 185.48H233.024C232.224 185.48 231.752 185.184 231.752 184.736V184C231.752 180.056 229.52 176.48 224.312 176.48C220.144 176.48 217.616 178.64 217.616 181.984C217.616 186.824 224.384 187.584 231.384 190.624C239.048 194.048 242.4 198.808 242.4 205.36C242.4 213.52 237.392 219.32 228.304 220.512Z" fill="white" stroke="#263238" stroke-linecap="round" stroke-linejoin="round"/>
<path d="M229.896 220.512C229.774 220.537 229.664 220.601 229.583 220.695C229.502 220.789 229.454 220.908 229.448 221.032L229.52 224.384C229.547 224.556 229.534 224.732 229.48 224.898C229.426 225.064 229.334 225.215 229.21 225.338C229.087 225.462 228.936 225.554 228.77 225.608C228.604 225.662 228.428 225.675 228.256 225.648H223.864C223.692 225.675 223.515 225.662 223.35 225.608C223.184 225.554 223.033 225.462 222.91 225.338C222.786 225.215 222.694 225.064 222.64 224.898C222.586 224.732 222.573 224.556 222.6 224.384L222.752 220.96C222.748 220.835 222.702 220.715 222.62 220.62C222.539 220.526 222.427 220.462 222.304 220.44C213.816 219.4 208.904 214.264 208.904 207.12V203.92C208.883 203.749 208.902 203.576 208.958 203.413C209.014 203.25 209.107 203.102 209.228 202.98C209.35 202.859 209.498 202.766 209.661 202.71C209.824 202.654 209.997 202.635 210.168 202.656H217.912C218.712 202.656 219.176 203.032 219.176 203.624V204.664C219.176 208.464 221.632 211.736 226.696 211.736C231.456 211.736 233.472 208.832 233.472 205.856C233.472 200.576 223.792 199.752 216.672 195.136C212.056 192.312 208.856 188.664 208.856 182.336C208.856 174.52 213.656 169.008 222.248 167.744C222.372 167.723 222.484 167.66 222.566 167.565C222.648 167.47 222.694 167.349 222.696 167.224L222.552 163.224C222.525 163.051 222.539 162.875 222.593 162.709C222.646 162.543 222.739 162.392 222.862 162.268C222.985 162.144 223.135 162.051 223.301 161.996C223.467 161.941 223.643 161.926 223.816 161.952H228C228.172 161.931 228.346 161.95 228.509 162.006C228.673 162.063 228.821 162.156 228.943 162.279C229.065 162.402 229.157 162.551 229.213 162.714C229.268 162.878 229.286 163.052 229.264 163.224L229.192 167.168C229.196 167.293 229.242 167.413 229.324 167.508C229.405 167.602 229.517 167.666 229.64 167.688C238.568 168.656 243.632 174.088 243.632 181.76V184.216C243.653 184.387 243.634 184.56 243.578 184.723C243.522 184.886 243.429 185.034 243.307 185.155C243.186 185.277 243.038 185.37 242.875 185.426C242.712 185.482 242.539 185.501 242.368 185.48H234.552C233.752 185.48 233.288 185.184 233.288 184.736V184C233.288 180.056 231.056 176.48 225.84 176.48C221.672 176.48 219.144 178.64 219.144 181.984C219.144 186.824 225.92 187.584 232.912 190.624C240.584 194.048 243.936 198.808 243.936 205.36C244 213.52 238.976 219.32 229.896 220.512Z" fill="#263238"/>
<path d="M96.0642 356.584H46.8562V303.152L69.9762 279.232L96.0642 303.152V356.584Z" fill="#999999" stroke="#263238" stroke-linecap="round" stroke-linejoin="round"/>
<path d="M257.448 356.584H139.528V242.352L207.584 213.936L257.448 242.352V356.584Z" fill="#999999" stroke="#263238" stroke-linecap="round" stroke-linejoin="round"/>
<path d="M155.264 293.08H93.8801V356.656H155.264V293.08Z" fill="white" stroke="#263238" stroke-linecap="round" stroke-linejoin="round"/>
<path d="M226.12 303.152H192.4V356.656H226.12V303.152Z" fill="#C2C2C2" stroke="#263238" stroke-linecap="round" stroke-linejoin="round"/>
<path d="M215.424 310.704H199.952V356.656H215.424V310.704Z" fill="white" stroke="#263238" stroke-linecap="round" stroke-linejoin="round"/>
<path d="M212.984 310.704H202.392V356.656H212.984V310.704Z" fill="#263238" stroke="#263238" stroke-linecap="round" stroke-linejoin="round"/>
<path d="M212.984 351.776H183.992V354.728H212.984V351.776Z" fill="white" stroke="#263238" stroke-linecap="round" stroke-linejoin="round"/>
<path d="M215.424 310.704H199.952V314.48H215.424V310.704Z" fill="white" stroke="#263238" stroke-linecap="round" stroke-linejoin="round"/>
<path d="M84.44 310.704H59.624V356.656H84.44V310.704Z" fill="white" stroke="#263238" stroke-linecap="round" stroke-linejoin="round"/>
<path d="M80.5201 310.704H63.5281V356.656H80.5201V310.704Z" fill="#263238" stroke="#263238" stroke-linecap="round" stroke-linejoin="round"/>
<path d="M84.44 310.704H59.624V314.48H84.44V310.704Z" fill="white" stroke="#263238" stroke-linecap="round" stroke-linejoin="round"/>
<path d="M172.464 302.072H152.744V337.768H172.464V302.072Z" fill="#C2C2C2" stroke="#263238" stroke-linecap="round" stroke-linejoin="round"/>
<path d="M319.544 356.584H234.784V242.352L276.664 213.936L319.544 242.352V356.584Z" fill="white" stroke="#263238" stroke-linecap="round" stroke-linejoin="round"/>
<path d="M320.608 242.728L276.584 214.168L234.432 242.976V245.76L276.888 216.952L320.608 245.512V242.728Z" fill="white" stroke="#263238" stroke-linecap="round" stroke-linejoin="round"/>
<path d="M265.84 221.28L229.864 278.808L234.784 279.44L272.232 218.056L319.544 287.856L322.064 287.752L274.864 215.16L265.84 221.28Z" fill="#263238" stroke="#263238" stroke-linecap="round" stroke-linejoin="round"/>
<path d="M234.784 242.352H134.488L174.136 213.936L276.584 214.512L234.784 242.352Z" fill="#263238" stroke="#263238" stroke-linecap="round" stroke-linejoin="round"/>
<path d="M297.168 291.64H249.616V356.584H297.168V291.64Z" fill="#BABABA" stroke="#263238" stroke-linecap="round" stroke-linejoin="round"/>
<path d="M300.944 291.64H253.392V356.584H300.944V291.64Z" fill="white" stroke="#263238" stroke-linecap="round" stroke-linejoin="round"/>
<path d="M293.72 301.496H260.608V335.704H293.72V301.496Z" fill="white" stroke="#263238" stroke-width="2" stroke-linecap="round" stroke-linejoin="round"/>
<path d="M284.128 301.496H270.208V335.704H284.128V301.496Z" fill="white" stroke="#263238" stroke-width="2" stroke-linecap="round" stroke-linejoin="round"/>
<path d="M302.384 288.736H244.4V294.536H302.384V288.736Z" fill="#BABABA" stroke="#263238" stroke-linecap="round" stroke-linejoin="round"/>
<path d="M306.16 288.736H248.176V294.536H306.16V288.736Z" fill="white" stroke="#263238" stroke-linecap="round" stroke-linejoin="round"/>
<path d="M216.952 302.072H214.008V333.384H216.952V302.072Z" fill="white" stroke="#263238" stroke-linecap="round" stroke-linejoin="round"/>
<path d="M225.152 302.072H222.208V333.384H225.152V302.072Z" fill="white" stroke="#263238" stroke-linecap="round" stroke-linejoin="round"/>
<path d="M217.856 332.952H212.984V336.464H217.856V332.952Z" fill="white" stroke="#263238" stroke-linecap="round" stroke-linejoin="round"/>
<path d="M226.112 332.952H221.24V336.464H226.112V332.952Z" fill="white" stroke="#263238" stroke-linecap="round" stroke-linejoin="round"/>
<path d="M217.856 305.2H212.984V307.176H217.856V305.2Z" fill="white" stroke="#263238" stroke-linecap="round" stroke-linejoin="round"/>
<path d="M226.112 305.2H221.24V307.176H226.112V305.2Z" fill="white" stroke="#263238" stroke-linecap="round" stroke-linejoin="round"/>
<path d="M227.872 336.168H210.648V356.584H227.872V336.168Z" fill="white" stroke="#263238" stroke-linecap="round" stroke-linejoin="round"/>
<path d="M175.408 302.072H172.464V333.384H175.408V302.072Z" fill="white" stroke="#263238" stroke-linecap="round" stroke-linejoin="round"/>
<path d="M183.608 302.072H180.664V333.384H183.608V302.072Z" fill="white" stroke="#263238" stroke-linecap="round" stroke-linejoin="round"/>
<path d="M176.312 332.952H171.44V336.464H176.312V332.952Z" fill="white" stroke="#263238" stroke-linecap="round" stroke-linejoin="round"/>
<path d="M184.568 332.952H179.696V336.464H184.568V332.952Z" fill="white" stroke="#263238" stroke-linecap="round" stroke-linejoin="round"/>
<path d="M176.312 305.2H171.44V307.176H176.312V305.2Z" fill="white" stroke="#263238" stroke-linecap="round" stroke-linejoin="round"/>
<path d="M184.568 305.2H179.696V307.176H184.568V305.2Z" fill="white" stroke="#263238" stroke-linecap="round" stroke-linejoin="round"/>
<path d="M186.336 336.168H169.112V356.584H186.336V336.168Z" fill="white" stroke="#263238" stroke-linecap="round" stroke-linejoin="round"/>
<path d="M169.536 336.168H148.536V356.584H169.536V336.168Z" fill="#999999" stroke="#263238" stroke-linecap="round" stroke-linejoin="round"/>
<path d="M227.88 304.976H162.936L173.952 299.176H227.88V304.976Z" fill="white" stroke="#263238" stroke-linecap="round" stroke-linejoin="round"/>
<path d="M260.928 310.192H293.4" stroke="#263238" stroke-linecap="round" stroke-linejoin="round"/>
<path d="M260.928 318.312H293.4" stroke="#263238" stroke-linecap="round" stroke-linejoin="round"/>
<path d="M260.928 326.432H293.4" stroke="#263238" stroke-linecap="round" stroke-linejoin="round"/>
<path d="M67.1041 278.128L43.5681 303.656H45.5361L68.6481 279.232L67.1041 278.128Z" fill="#263238" stroke="#263238" stroke-linecap="round" stroke-linejoin="round"/>
<path d="M91.992 302.52H156.52L204.864 278.128H67.104L91.992 302.52Z" fill="#263238" stroke="#263238" stroke-linecap="round" stroke-linejoin="round"/>
<path d="M238.456 278.128H201.088L134.488 302.52H167.848L238.456 278.128Z" fill="#263238" stroke="#263238" stroke-linecap="round" stroke-linejoin="round"/>
<path d="M322.064 280.84L278.168 213.488C277.996 213.217 277.757 212.996 277.474 212.843C277.192 212.691 276.875 212.614 276.555 212.619C276.234 212.624 275.92 212.71 275.642 212.871C275.364 213.032 275.132 213.26 274.968 213.536L235.472 278.768L159.04 303.36V307.304L237.264 282.176C237.704 282.047 238.082 281.763 238.328 281.376L276.64 218.08L322.064 287.776V280.84Z" fill="white" stroke="#263238" stroke-linecap="round" stroke-linejoin="round"/>
<path d="M223.048 246.6H209.712V268.632H223.048V246.6Z" stroke="#263238" stroke-width="2" stroke-linecap="round" stroke-linejoin="round"/>
<path d="M216.376 247.184V268.056" stroke="#263238" stroke-linecap="round" stroke-linejoin="round"/>
<path d="M222.752 257.616H210" stroke="#263238" stroke-linecap="round" stroke-linejoin="round"/>
<path d="M129.2 311.016H115.864V333.048H129.2V311.016Z" stroke="#263238" stroke-width="2" stroke-linecap="round" stroke-linejoin="round"/>
<path d="M122.528 311.592V332.472" stroke="#263238" stroke-linecap="round" stroke-linejoin="round"/>
<path d="M128.912 322.032H116.152" stroke="#263238" stroke-linecap="round" stroke-linejoin="round"/>
<path d="M282.784 246.184H269.448V268.216H282.784V246.184Z" stroke="#263238" stroke-width="2" stroke-linecap="round" stroke-linejoin="round"/>
<path d="M276.112 246.76V267.64" stroke="#263238" stroke-linecap="round" stroke-linejoin="round"/>
<path d="M282.488 257.2H269.736" stroke="#263238" stroke-linecap="round" stroke-linejoin="round"/>
<path d="M194.536 246.6H181.2V268.632H194.536V246.6Z" stroke="#263238" stroke-width="2" stroke-linecap="round" stroke-linejoin="round"/>
<path d="M187.864 247.184V268.056" stroke="#263238" stroke-linecap="round" stroke-linejoin="round"/>
<path d="M194.248 257.616H181.488" stroke="#263238" stroke-linecap="round" stroke-linejoin="round"/>
<path d="M166.024 246.6H152.688V268.632H166.024V246.6Z" stroke="#263238" stroke-width="2" stroke-linecap="round" stroke-linejoin="round"/>
<path d="M159.36 247.184V268.056" stroke="#263238" stroke-linecap="round" stroke-linejoin="round"/>
<path d="M165.736 257.616H152.976" stroke="#263238" stroke-linecap="round" stroke-linejoin="round"/>
<path d="M106.792 293.712H99.2401L90.4321 284.896H97.9841L106.792 293.712Z" fill="#6E6E6E"/>
<path d="M130.08 293.712H122.528L113.72 284.896H121.272L130.08 293.712Z" fill="#6E6E6E"/>
<path d="M67.1281 317.624H64.3921V326.44H67.1281V317.624Z" fill="#B5B5B5" stroke="#263238" stroke-linecap="round" stroke-linejoin="round"/>
<path d="M70.1681 317.624H67.4321V326.44H70.1681V317.624Z" fill="#B5B5B5" stroke="#263238" stroke-linecap="round" stroke-linejoin="round"/>
<path d="M73.2162 317.624H70.4722V326.44H73.2162V317.624Z" fill="#B5B5B5" stroke="#263238" stroke-linecap="round" stroke-linejoin="round"/>
<path d="M76.264 317.624H73.52V326.44H76.264V317.624Z" fill="#B5B5B5" stroke="#263238" stroke-linecap="round" stroke-linejoin="round"/>
<path d="M79.2961 317.624H76.5601V326.44H79.2961V317.624Z" fill="#B5B5B5" stroke="#263238" stroke-linecap="round" stroke-linejoin="round"/>
<path d="M159.04 302.864H91.3601V307.304H159.04V302.864Z" fill="white" stroke="#263238" stroke-linecap="round" stroke-linejoin="round"/>
<path d="M159.04 302.864H133.64V307.304H159.04V302.864Z" fill="#BABABA" stroke="#263238" stroke-linecap="round" stroke-linejoin="round"/>
<path d="M91.3601 302.864L67.1041 278.128L43.5681 303.656H46.8561L67.1921 281.976L91.3601 307.304V302.864Z" fill="#BABABA" stroke="#263238" stroke-linecap="round" stroke-linejoin="round"/>
<path d="M212.984 353.896H183.992V356.656H212.984V353.896Z" fill="white" stroke="#263238" stroke-linecap="round" stroke-linejoin="round"/>
<path d="M234.432 242.976H134.104V245.752H234.432V242.976Z" fill="#BABABA" stroke="#263238" stroke-linecap="round" stroke-linejoin="round"/>
<path d="M123.048 329.112H119.72C118.677 329.112 117.832 329.957 117.832 331V331.664C117.832 332.707 118.677 333.552 119.72 333.552H123.048C124.091 333.552 124.936 332.707 124.936 331.664V331C124.936 329.957 124.091 329.112 123.048 329.112Z" fill="#263238" stroke="#263238" stroke-linecap="round" stroke-linejoin="round"/>
<path d="M142.344 318.152H171.432L186.24 329.112L211.704 333.552V346.88H97.6961L89.1121 343.032V337.992L124.648 330.592L139.808 319.008C140.537 318.453 141.428 318.153 142.344 318.152Z" fill="#619698" stroke="#263238" stroke-linecap="round" stroke-linejoin="round"/>
<path d="M147.448 330.592H124.352L139.512 319.008C140.241 318.453 141.132 318.153 142.048 318.152H163.736L147.448 330.592Z" fill="white" stroke="#263238" stroke-linecap="round" stroke-linejoin="round"/>
<path d="M139.004 354.132C142.357 350.78 142.357 345.345 139.004 341.993C135.652 338.64 130.217 338.64 126.865 341.993C123.512 345.345 123.512 350.78 126.865 354.132C130.217 357.485 135.652 357.485 139.004 354.132Z" fill="white" stroke="#263238" stroke-linecap="round" stroke-linejoin="round"/>
<path d="M138.882 355.98C143.266 354.177 145.36 349.162 143.557 344.777C141.754 340.392 136.738 338.299 132.353 340.102C127.969 341.905 125.876 346.921 127.678 351.305C129.481 355.69 134.497 357.783 138.882 355.98Z" fill="#263238" stroke="#263238" stroke-linecap="round" stroke-linejoin="round"/>
<path d="M140.04 348.064C140.04 348.942 139.78 349.801 139.292 350.531C138.804 351.261 138.111 351.83 137.299 352.166C136.488 352.502 135.595 352.59 134.734 352.419C133.873 352.247 133.082 351.825 132.461 351.204C131.84 350.583 131.417 349.792 131.245 348.93C131.074 348.069 131.162 347.176 131.498 346.365C131.834 345.554 132.403 344.86 133.133 344.372C133.864 343.884 134.722 343.624 135.6 343.624C136.184 343.623 136.761 343.737 137.301 343.96C137.84 344.183 138.33 344.51 138.742 344.922C139.155 345.335 139.482 345.825 139.704 346.364C139.927 346.903 140.041 347.481 140.04 348.064Z" fill="white" stroke="#263238" stroke-linecap="round" stroke-linejoin="round"/>
<path d="M113.392 339.48C112.945 339.481 112.498 339.518 112.056 339.592C111.617 339.518 111.173 339.48 110.728 339.48C109.578 339.445 108.433 339.641 107.361 340.057C106.288 340.473 105.31 341.1 104.484 341.901C103.658 342.701 103.002 343.66 102.553 344.719C102.105 345.779 101.874 346.918 101.874 348.068C101.874 349.218 102.105 350.357 102.553 351.416C103.002 352.476 103.658 353.434 104.484 354.235C105.31 355.036 106.288 355.663 107.361 356.079C108.433 356.495 109.578 356.691 110.728 356.656C111.173 356.653 111.618 356.613 112.056 356.536C112.497 356.612 112.944 356.652 113.392 356.656C115.624 356.588 117.743 355.653 119.297 354.05C120.852 352.447 121.722 350.301 121.722 348.068C121.722 345.835 120.852 343.689 119.297 342.086C117.743 340.483 115.624 339.548 113.392 339.48Z" fill="#263238" stroke="#263238" stroke-linecap="round" stroke-linejoin="round"/>
<path d="M178.84 339.48C178.393 339.48 177.946 339.518 177.504 339.592C177.063 339.518 176.616 339.48 176.168 339.48C173.936 339.548 171.818 340.483 170.263 342.086C168.708 343.689 167.838 345.835 167.838 348.068C167.838 350.301 168.708 352.447 170.263 354.05C171.818 355.653 173.936 356.588 176.168 356.656C176.616 356.653 177.063 356.613 177.504 356.536C177.946 356.613 178.392 356.653 178.84 356.656C181.073 356.588 183.191 355.653 184.746 354.05C186.3 352.447 187.17 350.301 187.17 348.068C187.17 345.835 186.3 343.689 184.746 342.086C183.191 340.483 181.073 339.548 178.84 339.48Z" fill="#263238" stroke="#263238" stroke-linecap="round" stroke-linejoin="round"/>
<path d="M205.26 350.078C206.354 345.466 203.502 340.839 198.89 339.744C194.277 338.65 189.65 341.502 188.556 346.114C187.461 350.727 190.313 355.354 194.926 356.448C199.538 357.543 204.165 354.691 205.26 350.078Z" fill="white" stroke="#263238" stroke-linecap="round" stroke-linejoin="round"/>
<path d="M202.852 355.976C207.237 354.173 209.33 349.157 207.527 344.772C205.724 340.388 200.709 338.295 196.324 340.097C191.939 341.9 189.846 346.916 191.649 351.301C193.452 355.685 198.468 357.778 202.852 355.976Z" fill="#263238" stroke="#263238" stroke-linecap="round" stroke-linejoin="round"/>
<path d="M204 348.064C204.002 348.944 203.742 349.806 203.254 350.538C202.766 351.271 202.071 351.842 201.258 352.18C200.445 352.518 199.55 352.606 198.686 352.435C197.823 352.264 197.029 351.84 196.407 351.217C195.784 350.595 195.36 349.801 195.189 348.938C195.018 348.074 195.106 347.179 195.444 346.366C195.782 345.553 196.353 344.858 197.086 344.37C197.819 343.882 198.68 343.622 199.56 343.624C200.143 343.624 200.72 343.739 201.259 343.962C201.798 344.185 202.287 344.512 202.7 344.924C203.112 345.337 203.439 345.826 203.662 346.365C203.885 346.904 204 347.481 204 348.064Z" fill="white" stroke="#263238" stroke-linecap="round" stroke-linejoin="round"/>
<path d="M209.04 329.112L195.936 319.408C194.832 318.591 193.494 318.15 192.12 318.152H163.736L147.448 330.592L111.912 337.992V343.032L120.496 346.88H126.264C126.174 346.44 126.128 345.993 126.128 345.544V345.248C126.139 343.558 126.818 341.94 128.017 340.748C129.216 339.557 130.838 338.888 132.528 338.888H139.048C140.739 338.888 142.36 339.557 143.56 340.748C144.759 341.94 145.438 343.558 145.448 345.248V345.544C145.448 346.008 145.392 346.448 145.304 350.136H190.08C189.992 346.448 189.944 346.008 189.944 345.544V345.248C189.955 343.564 190.628 341.953 191.819 340.762C193.009 339.572 194.621 338.898 196.304 338.888H202.824C204.515 338.888 206.136 339.557 207.336 340.748C208.535 341.94 209.214 343.558 209.224 345.248V345.544C209.221 345.993 209.173 346.441 209.08 346.88H218.552V336.992C218.552 335.965 218.259 334.958 217.708 334.091C217.157 333.224 216.37 332.532 215.44 332.096L209.04 329.112Z" fill="#619698" stroke="#263238" stroke-linecap="round" stroke-linejoin="round"/>
<path d="M177.648 320.232H164.424L150.848 330.592H177.648V320.232Z" fill="white" stroke="#263238" stroke-linecap="round" stroke-linejoin="round"/>
<path d="M179.872 320.232H190.64C192.045 320.231 193.411 320.692 194.528 321.544L206.4 330.592H179.872V320.232Z" fill="white" stroke="#263238" stroke-linecap="round" stroke-linejoin="round"/>
<path d="M111.912 337.992H89.1121V343.024H111.912V337.992Z" fill="white" stroke="#263238" stroke-linecap="round" stroke-linejoin="round"/>
<path d="M220.288 343.92H212.888V348.064H220.288V343.92Z" fill="#263238" stroke="#263238" stroke-linecap="round" stroke-linejoin="round"/>
<path d="M119.912 343.032H88.2241V348.064H119.912V343.032Z" fill="#263238" stroke="#263238" stroke-linecap="round" stroke-linejoin="round"/>
<path d="M156.808 329.112H153.48C152.437 329.112 151.592 329.957 151.592 331V331.664C151.592 332.707 152.437 333.552 153.48 333.552H156.808C157.851 333.552 158.696 332.707 158.696 331.664V331C158.696 329.957 157.851 329.112 156.808 329.112Z" fill="#263238" stroke="#263238" stroke-linecap="round" stroke-linejoin="round"/>
<path d="M110.72 338.296H105.392V342.44H110.72V338.296Z" fill="white" stroke="#263238" stroke-linecap="round" stroke-linejoin="round"/>
<path d="M95.328 338.296H90V342.44H95.328V338.296Z" fill="white" stroke="#263238" stroke-linecap="round" stroke-linejoin="round"/>
<path d="M95.3281 339.776H105.096" stroke="#263238" stroke-linecap="round" stroke-linejoin="round"/>
<path d="M95.3281 341.288H105.096" stroke="#263238" stroke-linecap="round" stroke-linejoin="round"/>
<path d="M148.848 345.096H187.696" stroke="#263238" stroke-width="2" stroke-linecap="round" stroke-linejoin="round"/>
<path d="M178.544 319.152V347.872H148.144V344.456C148.144 342.429 147.552 340.447 146.44 338.752L145.504 337.328L150.776 332.608" stroke="#263238" stroke-linecap="round" stroke-linejoin="round"/>
<path d="M206.704 331.2V337.72H195.2C193.675 337.722 192.213 338.329 191.136 339.408L190.48 340.064C189.404 341.143 188.8 342.604 188.8 344.128V347.568H180.208" stroke="#263238" stroke-linecap="round" stroke-linejoin="round"/>
<path d="M177.6 333.72H173.992V335.784H177.6V333.72Z" fill="#263238" stroke="#263238" stroke-linecap="round" stroke-linejoin="round"/>
<path d="M205.6 333.72H201.992V335.784H205.6V333.72Z" fill="#263238" stroke="#263238" stroke-linecap="round" stroke-linejoin="round"/>
<path d="M23.2 356.656H352" stroke="#263238" stroke-linecap="round" stroke-linejoin="round"/>
</svg>
