<svg width="48" height="49" viewBox="0 0 48 49" fill="none" xmlns="http://www.w3.org/2000/svg">
<path d="M10.3043 0.571703C10.0678 0.0726378 9.47142 -0.14018 8.97236 0.0963618L0.839614 3.95103C0.340548 4.18757 0.12773 4.7839 0.364272 5.28297C0.600814 5.78203 1.19714 5.99485 1.69621 5.75831L8.92531 2.33193L12.3517 9.56104C12.5882 10.0601 13.1846 10.2729 13.6836 10.0364C14.1827 9.79984 14.3955 9.20351 14.159 8.70445L10.3043 0.571703ZM8.45883 0.663883C5.56142 8.78262 5.38481 15.7623 7.09337 21.7033C8.80022 27.6384 12.3634 32.4506 16.8037 36.2839C25.6557 43.9258 38.0949 47.7699 46.8316 48.9904L47.1083 47.0096C38.591 45.8198 26.5684 42.0716 18.1107 34.77C13.8961 31.1315 10.5925 26.6341 9.01547 21.1505C7.44019 15.673 7.56275 9.12508 10.3425 1.33612L8.45883 0.663883Z" fill="#CB0000"/>
</svg>
